PathFileType	4	(X/Y/Z)	Patient4_TMGait_0pt6_01_right_05.trc.trc
DataRate	CameraRate	NumFrames	NumMarkers	Units	OrigDataRate	OrigDataStartFrame	OrigNumFrames
76.086956521739	76.086956521739	4	33	mm	76.086956521739	71	       141
Frame#	Time	Sacral			L.Shoulder			Chest			R.Shoulder			Neck			R.ASIS			L.ASIS			R.Thigh.Superior			R.Thigh.Lateral			R.Thigh.Inferior			R.Patella			L.Thigh.Superior			L.Thigh.Lateral			L.Thigh.Inferior			L.Patella			L.Shank.Superior			L.Shank.Lateral			L.Shank.Inferior			R.Shank.Superior			R.Shank.Lateral			R.Shank.Inferior			R.Heel			R.Midfoot.Superior			R.Midfoot.Lateral			R.Toe			L.Heel			L.Midfoot.Lateral			L.Midfoot.Superior			L.Toe			L.Elbow			L.Wrist			R.Elbow			R.Wrist			
		X1	Y1	Z1	X2	Y2	Z2	X3	Y3	Z3	X4	Y4	Z4	X5	Y5	Z5	X6	Y6	Z6	X7	Y7	Z7	X8	Y8	Z8	X9	Y9	Z9	X10	Y10	Z10	X11	Y11	Z11	X12	Y12	Z12	X13	Y13	Z13	X14	Y14	Z14	X15	Y15	Z15	X16	Y16	Z16	X17	Y17	Z17	X18	Y18	Z18	X19	Y19	Z19	X20	Y20	Z20	X21	Y21	Z21	X22	Y22	Z22	X23	Y23	Z23	X24	Y24	Z24	X25	Y25	Z25	X26	Y26	Z26	X27	Y27	Z27	X28	Y28	Z28	X29	Y29	Z29	X30	Y30	Z30	X31	Y31	Z31	X32	Y32	Z32	X33	Y33	Z33	

71	6.310000000000	615.257482951576	1005.197684835723	518.020903333250	768.868486422993	1444.407570508920	358.307560089480	889.015219336102	1364.947212474262	501.840974017190	822.450394500733	1423.111435202888	687.735661169221	766.707499280240	1490.801180566926	517.248316209606	845.843389551683	935.222910688431	621.896389139912	819.703075338980	962.071694369076	348.736621419698	842.732998867405	723.972453187756	593.850667653003	734.744694150749	630.570135313826	649.571378800138	797.955272418693	564.959433529069	572.172521000823	776.161070209271	479.436368266688	574.132877525116	891.750940260882	770.908492290077	375.914820877840	835.092079164397	639.054224035902	306.918920653937	939.055920306935	580.989204869183	365.188668080658	963.840161072040	516.227819296180	364.455876023075	949.375455880661	443.745575939293	358.979503544229	884.206864597074	310.627498095882	317.483352581142	974.953139793433	216.472210754140	374.067903275684	735.830838694069	396.664358757992	577.306122554109	646.223141596157	303.278063268999	631.949219818688	678.390571425360	204.847487020654	567.201693369767	527.822198172051	47.370701358325	525.638415054111	702.106295620666	97.399340160487	563.228870473389	610.889501957633	37.097183720753	599.060075309676	819.026630036466	40.443948879723	589.353845308452	893.657691844672	40.699690913914	422.579645550272	965.699600483522	41.883045239925	340.462019493942	1038.233571249629	117.737912554784	356.752014426674	1170.356367092580	85.007567606430	328.439925540990	655.090420201170	1116.797653275074	230.868409645177	649.948249726418	859.884494250888	198.338455423927	921.737144777514	1088.723174547707	785.177320442296	1128.423845532236	1186.525280906477	689.089069997533	
72	6.323142857143	616.174470057475	1004.106504184653	515.375675984582	768.857712831128	1443.412059491447	356.165125958925	888.771460853614	1364.432180472784	500.110403296913	821.332225532786	1422.296120211075	685.901218600673	766.252394863329	1489.907190290248	515.107949987140	846.310185942379	934.246864876346	620.310239488913	821.364146530022	960.983852879712	347.026108058352	842.211994579828	722.670293069976	592.810833002285	733.165151603420	630.081609772035	648.184040062709	796.200602793835	563.765115227826	571.179883431462	773.528330813011	478.111539026656	572.953954963807	893.212360319894	769.226318829033	375.553241955877	835.840836301772	637.263271115698	307.363710556484	939.278463169899	579.170786704558	366.379028485554	962.851683321476	513.272484754738	366.430601964354	947.584470058786	440.360462944144	361.110298187245	880.058269096984	308.233721985396	320.038942677817	968.412423015930	212.579102834629	377.790797171967	732.222782961889	395.783087473363	576.430874693258	641.398803046935	303.649626773294	631.320894298814	672.242920636410	204.668926265895	566.872059571730	520.052668321277	48.265427482463	525.781843123968	694.539012653008	97.556715886929	563.442302110207	603.079366263720	37.409547628118	599.084448386208	811.215408411400	39.925251724888	589.402674327701	882.659260620150	39.249583733882	425.683342157046	955.111746805841	39.639873115755	343.869658904806	1029.845899966022	112.780925006597	361.779100983780	1161.242991197620	76.305314321185	333.641985756540	654.183600417347	1116.138743938724	228.998817511733	650.529139122649	858.934366954708	196.784186062937	918.153881596226	1087.731361860483	785.925289625855	1125.780253532491	1183.217952276645	689.648053059776	
73	6.336285714286	617.229782540386	1003.167218739256	512.562880046453	768.966031307227	1442.512807813564	353.887134047484	888.654009403385	1364.049622062233	498.265444505869	820.303922892732	1421.609372330599	683.937154909231	765.899105503647	1489.145424124875	512.824241741831	846.899895804258	933.350772436829	618.569631520044	823.188435543666	960.062610198029	345.190473743733	841.825999138257	721.447658186086	591.611498613518	731.757426309753	629.676198099633	646.653294650488	794.679183509517	562.659589614493	570.069107495074	771.184650799251	476.772148915475	571.726289719821	894.647665568377	767.543539678321	375.130518292258	836.476414177053	635.654434445744	307.620189894404	939.300624698624	577.407003792391	367.527987695690	961.550095952277	510.468685473679	368.399950795662	945.615721229993	437.247933480478	363.032621791441	876.111500465052	306.076083452791	322.083651240009	962.071712350648	209.082697426678	381.077476842244	728.791501846360	394.955163323394	575.502595193894	636.677775655758	304.177808911441	630.622978413908	666.200008946310	204.612090628718	566.549924710901	512.312854917627	49.381846624592	525.948696550791	687.049201727568	97.779818808922	563.700027044989	595.295452902464	37.826959373567	599.146858179951	803.425412115974	39.415091903092	589.455049996803	872.061002858596	38.104089581630	428.146737485186	944.986155970817	37.873667820486	346.685921566281	1021.733018293316	108.382532015493	366.343175100757	1152.445577683699	68.419333883245	338.473145481717	654.103535519730	1115.262236968696	227.031370933169	652.281552718508	857.755046676470	195.204772600021	913.790698486107	1086.588842555104	786.550503884440	1123.260914465657	1178.202392088751	690.634460611606	
74	6.349428571429	618.373272045096	1002.445180803253	509.614390076153	769.224923684235	1441.759919576869	351.486023994507	888.687142857267	1363.821728899535	496.315615589360	819.420921913219	1421.114724071915	681.844265917599	765.673396791591	1488.563539002791	510.405931830237	847.569171807867	932.584451175485	616.682406831556	825.102065976936	959.367338239187	343.234287530124	841.573165633251	720.365662188617	590.230936743208	730.580583265505	629.372312427828	644.986452458932	793.480211330543	561.679525125264	568.848374511045	769.258372218973	475.412708971069	570.501503991593	896.030727298310	766.006805288067	374.632511737402	837.084766292730	634.357260006241	307.611105241896	939.186968808260	575.842192843489	368.566218859953	960.041757692958	507.976393935341	370.246842951992	943.574136147640	434.547702555709	364.649813821242	872.510573695802	304.284032216155	323.470973378428	956.061923697604	206.121705253822	383.793066103666	725.625011542609	394.191348008385	574.548021493447	632.125524315825	304.900301967265	629.869252574599	660.313692211803	204.707648754969	566.254023229347	504.615477951867	50.786263670433	526.148828436531	679.666694116464	98.067253957912	564.000285546517	587.548719898181	38.374362987277	599.249335907985	795.663623984136	38.926829008855	589.502557768100	862.095583320203	37.298786896001	429.942817248212	935.500627810149	36.609728918015	348.836995496202	1013.987079588910	104.716129908767	370.221521975972	1144.084153919794	61.688609739253	342.654646010791	654.897888933658	1114.223682940619	224.940408981384	655.229640690815	856.415119690305	193.586897358792	908.685607274423	1085.370471115651	786.969369409200	1120.837034471344	1171.472033488117	692.037141825477	
